<svg xmlns="http://www.w3.org/2000/svg" viewBox="0 0 50 50">
  <path fill="#fff" d="M6.099 12.266a6.146 6.146 0 015.01-7.155l18.82-3.25a6.253 6.253 0 017.208 5.045l5.868 32.598a6.146 6.146 0 01-5.01 7.156l-18.82 3.25a6.253 6.253 0 01-7.206-5.045L6.101 12.266h-.002z"/>
  <path fill-rule="evenodd" d="M30.297 3.894l-18.822 3.25a4.098 4.098 0 00-3.34 4.771l5.868 32.597a4.168 4.168 0 004.804 3.364l18.824-3.25a4.097 4.097 0 003.339-4.77L35.102 7.258a4.169 4.169 0 00-4.804-3.364h-.001zM11.108 5.11a6.146 6.146 0 00-5.01 7.155l5.869 32.599a6.253 6.253 0 007.207 5.045l18.823-3.25a6.145 6.145 0 005.01-7.156l-5.87-32.598a6.252 6.252 0 00-7.207-5.045L11.108 5.11z" clip-rule="evenodd"/>
  <path fill="#fff" d="M13.266 7.199A6.199 6.199 0 0119.464 1h18.568a6.199 6.199 0 016.199 6.199v33.093a6.199 6.199 0 01-6.2 6.199H19.465a6.199 6.199 0 01-6.198-6.2V7.2z"/>
  <path fill-rule="evenodd" d="M38.032 3.066H19.464A4.133 4.133 0 0015.332 7.2v33.093a4.133 4.133 0 004.132 4.132h18.568a4.132 4.132 0 004.132-4.132V7.199a4.132 4.132 0 00-4.132-4.133zM19.464 1a6.199 6.199 0 00-6.198 6.199v33.093a6.199 6.199 0 006.198 6.199h18.568a6.199 6.199 0 006.199-6.2V7.2A6.199 6.199 0 0038.03 1H19.465z" clip-rule="evenodd"/>
  <path d="M25.68 25.927v6.067h-2.083V16.497h5.829c1.73 0 3.083.433 4.06 1.299.983.865 1.475 2.011 1.475 3.437 0 1.505-.481 2.665-1.443 3.481-.956.808-2.327 1.213-4.114 1.213h-3.723zm0-1.671h3.746c1.115 0 1.968-.256 2.562-.767.593-.517.888-1.262.888-2.235 0-.922-.295-1.66-.888-2.213-.594-.553-1.408-.841-2.443-.862H25.68v6.077z"/>
</svg>
