<svg xmlns="http://www.w3.org/2000/svg" fill="none" viewBox="0 0 38 49">
  <rect width="28.488" height="42.06" x="1.163" y=".814" fill="#fff" stroke="#333" stroke-width="2" rx="5" transform="matrix(.98541 -.17018 .17719 .98418 -.127 5.453)"/>
  <rect width="27.972" height="42.032" x="9.028" y="1" fill="#fff" stroke="#333" stroke-width="2" rx="5"/>
  <path fill="#000" d="M19.384 23.63v6.773h-2.257V13.105h6.313c1.874 0 3.34.483 4.398 1.45 1.066.965 1.599 2.244 1.599 3.837 0 1.679-.522 2.974-1.564 3.884-1.035.903-2.52 1.355-4.456 1.355h-4.033zm0-1.864h4.056c1.207 0 2.132-.285 2.775-.856.643-.578.964-1.41.964-2.495 0-1.03-.321-1.853-.964-2.47-.643-.619-1.524-.94-2.645-.963h-4.186v6.784z"/>
</svg>
