<svg xmlns="http://www.w3.org/2000/svg" fill="none" viewBox="0 0 64 64">
  <path fill="#5540BF" d="M13.186 4.665a4.477 4.477 0 00-3.632 5.187l4.374 24.808c.194 1.102 1.775 1.102 1.97 0l3.81-21.614c.59-3.342 3.867-5.557 7.32-4.948l13.087 2.307a1 1 0 001.158-1.158l-.853-4.838A4.478 4.478 0 0035.233.778L13.186 4.665z" />
  <path fill="#5540BF" d="M21.674 14.036a4.478 4.478 0 015.187-3.632l22.047 3.887a4.478 4.478 0 013.632 5.188l-6.608 37.48a4.478 4.478 0 01-5.188 3.632l-22.047-3.887a4.477 4.477 0 01-3.632-5.187l6.609-37.481z" />
  <path fill="#fff" d="M29.56 36.114l4.279.755c.8.132 1.571.14 2.313.02a5.494 5.494 0 002.027-.724 4.86 4.86 0 001.54-1.428c.42-.605.703-1.323.85-2.156.148-.841.128-1.618-.058-2.329a5.03 5.03 0 00-.942-1.892 5.66 5.66 0 00-1.656-1.387 7.298 7.298 0 00-2.189-.798l-5.781-1.02-3.207 18.19 1.502.264 1.322-7.495zm.224-1.274l1.434-8.133 4.28.755c.604.115 1.15.318 1.636.61.496.285.906.64 1.23 1.067.316.425.538.91.667 1.457.13.539.141 1.12.031 1.745-.11.624-.322 1.163-.636 1.614-.304.444-.68.803-1.127 1.076-.449.282-.95.472-1.506.572a5.335 5.335 0 01-1.73-.009l-4.279-.754z" />
</svg>