<svg xmlns="http://www.w3.org/2000/svg" fill="none" viewBox="0 0 40 40">
  <path
    d="M22.412 19.544c.1.374.273.772.52 1.193.247.374.643.561 1.188.561.395 0 .89-.21 1.484-.631l8.81-6.134a1 1 0 0 1 1.35.194l1.576 1.961a1 1 0 0 1-.193 1.437l-8.277 5.98c-.693.515-1.435.96-2.227 1.334-.742.374-1.682.561-2.82.561-1.93 0-3.316-.468-4.157-1.404-.841-.982-1.534-2.292-2.078-3.93a4.547 4.547 0 0 0-.52-1.262c-.198-.468-.594-.702-1.188-.702-.445 0-1.014.257-1.707.772l-8.586 5.991a1 1 0 0 1-1.352-.193l-1.575-1.96a1 1 0 0 1 .193-1.437l8.277-5.98a10.416 10.416 0 0 1 2.3-1.334c.793-.374 1.708-.561 2.747-.561 1.88 0 3.242.515 4.083 1.544.89.982 1.608 2.316 2.152 4Z"
  />
</svg>
