<svg xmlns="http://www.w3.org/2000/svg" fill="none" viewBox="0 0 40 40">
  <path
    d="M19.418 13.37a6.629 6.629 0 0 1 7.25 6.639A6.669 6.669 0 0 1 20 26.675a6.629 6.629 0 0 1-6.64-7.25c.647.313 1.397.584 2.195.584A4.449 4.449 0 0 0 20 15.564c0-.798-.271-1.548-.584-2.194Zm13.958-3.32c3.25 3.014 5.424 6.563 6.452 9.104.23.55.23 1.16 0 1.709-1.028 2.479-3.201 6.028-6.452 9.104-3.27 3.042-7.764 5.597-13.375 5.597-5.612 0-10.105-2.555-13.374-5.597-3.25-3.076-5.423-6.625-6.456-9.104a2.22 2.22 0 0 1 0-1.709c1.033-2.541 3.206-6.09 6.456-9.104C9.897 7.011 14.39 4.453 20 4.453c5.611 0 10.104 2.558 13.375 5.597Zm-13.375-.041c-5.521 0-10 4.479-10 10 0 5.52 4.479 10 10 10 5.52 0 10-4.48 10-10 0-5.521-4.48-10-10-10Z"
  />
</svg>
