<svg xmlns="http://www.w3.org/2000/svg" fill="none" viewBox="0 0 113 113">
  <path fill="#5540BF" d="M16.868 17.395a7.906 7.906 0 016.413-9.158L62.21 1.373a7.906 7.906 0 019.158 6.412l11.669 66.177a7.906 7.906 0 01-6.413 9.159l-38.928 6.864a7.906 7.906 0 01-9.158-6.413L16.868 17.395z" />
  <path fill="#fff" d="M34.798 23.035c1.04-5.9 6.827-9.813 12.925-8.738l39.745 7.009c6.097 1.075 10.197 6.73 9.156 12.63l-12.057 68.38c-1.04 5.901-6.826 9.812-12.924 8.737l-39.745-7.008c-6.098-1.075-10.197-6.73-9.157-12.63l12.057-68.38z" />
  <path fill="#5540BF" d="M38.268 24.782a7.905 7.905 0 019.158-6.412l38.928 6.863a7.906 7.906 0 016.412 9.159l-11.668 66.177a7.906 7.906 0 01-9.159 6.412l-38.927-6.864a7.905 7.905 0 01-6.413-9.158l11.669-66.177z" />
  <path fill="#fff" d="M52.191 63.764l7.555 1.332c1.414.234 2.776.247 4.084.038 1.323-.207 2.517-.633 3.58-1.28a8.578 8.578 0 002.72-2.522c.74-1.067 1.24-2.336 1.499-3.807.262-1.485.228-2.855-.102-4.111a8.883 8.883 0 00-1.663-3.341c-.779-.971-1.753-1.788-2.924-2.449a12.883 12.883 0 00-3.864-1.409l-10.208-1.8-5.663 32.115 2.653.468 2.333-13.234zm.397-2.25l2.532-14.36 7.555 1.333a8.75 8.75 0 012.89 1.078 7.174 7.174 0 012.172 1.884c.557.75.95 1.608 1.178 2.573.23.95.248 1.977.054 3.08s-.569 2.053-1.123 2.85a6.489 6.489 0 01-1.99 1.9 7.412 7.412 0 01-2.66 1.01 9.424 9.424 0 01-3.053-.016l-7.555-1.332z" />
</svg>