<svg xmlns="http://www.w3.org/2000/svg" fill="none" viewBox="0 0 72 72">
  <path fill="#B1CC33" d="M63.996 23.013L55.983 15l-25.71 25.71-9.26-9.26L13 39.463l17.42 17.44 33.576-33.89z" />
  <path fill="#000" fill-rule="evenodd" d="M54.28 14.293a1 1 0 011.414 0l8.013 8.013a1 1 0 01.003 1.41l-33.58 33.89a1 1 0 01-1.418.004l-17.42-17.44a1 1 0 01.001-1.414l8.017-8.013a1 1 0 011.414 0l8.553 8.553L54.28 14.293zm.707 2.121L29.984 41.417a1 1 0 01-1.414 0l-8.553-8.553-6.603 6.6 16.003 16.021L61.59 23.016l-6.602-6.602z" clip-rule="evenodd" />
</svg>