<svg xmlns="http://www.w3.org/2000/svg" fill="none" viewBox="0 0 72 72">
  <path fill="#fff" d="M40.214 31.105c.004-.002.007-.002.01-.002a.046.046 0 00.014-.005C45.893 29.613 48 23.308 48 19.682V18H24v1.682c0 3.626 2.107 9.931 7.762 11.416l.013.006a.02.02 0 01.011.002c1.792.486 3.1 1.536 3.75 2.894h.929c.65-1.358 1.957-2.408 3.749-2.895z" />
  <path fill="#2A00FF" fill-opacity=".08" d="M40.214 31.105c.004-.002.007-.002.01-.002a.046.046 0 00.014-.005C45.893 29.613 48 23.308 48 19.682V18H24v1.682c0 3.626 2.107 9.931 7.762 11.416l.013.006a.02.02 0 01.011.002c1.792.486 3.1 1.536 3.75 2.894h.929c.65-1.358 1.957-2.408 3.749-2.895z" />
  <path fill="#fff" d="M47 55c-6.074 0-11-4.926-11-11 0 6.074-4.926 11-11 11h-1v4h24v-4h-1z" />
  <path fill="#2A00FF" fill-opacity=".08" d="M47 55c-6.074 0-11-4.926-11-11 0 6.074-4.926 11-11 11h-1v4h24v-4h-1z" />
  <path fill="#A57939" d="M55 11c0 1.1-.9 2-2 2H19c-1.1 0-2-.9-2-2v-1c0-1.1.9-2 2-2h34c1.1 0 2 .9 2 2v1zM55 62c0 1.1-.9 2-2 2H19c-1.1 0-2-.9-2-2v-1c0-1.1.9-2 2-2h34c1.1 0 2 .9 2 2v1z" />
  <path fill="#000" fill-rule="evenodd" d="M36 43a1 1 0 011 1c0 5.522 4.478 10 10 10a1 1 0 110 2c-4.919 0-9.147-2.961-11-7.197C34.147 53.039 29.919 56 25 56a1 1 0 110-2c5.522 0 10-4.478 10-10a1 1 0 011-1zM24 18a1 1 0 011-1h22a1 1 0 110 2H25a1 1 0 01-1-1z" clip-rule="evenodd" />
  <g>
    <path fill="#000" fill-rule="evenodd" d="M21 12a1 1 0 011 1v6.682c0 2.221.64 5.148 2.138 7.731 1.488 2.567 3.792 4.747 7.116 5.62a1 1 0 01-.508 1.934c-3.948-1.037-6.644-3.63-8.338-6.55C20.723 25.51 20 22.233 20 19.681V13a1 1 0 011-1zM31.967 37.746a1 1 0 01-.713 1.221c-3.325.873-5.628 3.053-7.116 5.62C22.64 47.17 22 50.097 22 52.318V59a1 1 0 11-2 0v-6.682c0-2.551.723-5.828 2.407-8.734 1.694-2.921 4.39-5.514 8.339-6.551a1 1 0 011.221.713z" clip-rule="evenodd" />
    <path fill="#000" fill-rule="evenodd" d="M30.035 33.737a1 1 0 011.227-.702c.59.16 1.245.44 1.771.9.548.479.967 1.17.967 2.065 0 .896-.419 1.587-.967 2.066-.526.46-1.181.739-1.77.899a1 1 0 11-.526-1.93c.411-.112.756-.28.98-.475.202-.177.283-.35.283-.56 0-.21-.08-.383-.283-.56-.224-.195-.569-.363-.98-.475a1 1 0 01-.702-1.228zM51 12a1 1 0 011 1v6.682c0 2.552-.723 5.829-2.408 8.734-1.694 2.921-4.39 5.514-8.338 6.551a1 1 0 01-.508-1.934c3.324-.873 5.628-3.053 7.116-5.62C49.359 24.83 50 21.903 50 19.682V13a1 1 0 011-1zM40.033 37.746a1 1 0 011.221-.713c3.948 1.037 6.645 3.63 8.339 6.551C51.276 46.49 52 49.767 52 52.318V59a1 1 0 11-2 0v-6.682c0-2.22-.64-5.148-2.138-7.73-1.488-2.568-3.791-4.748-7.116-5.62a1 1 0 01-.713-1.222z" clip-rule="evenodd" />
    <path fill="#000" fill-rule="evenodd" d="M41.965 33.737a1 1 0 01-.703 1.228c-.41.112-.755.28-.979.475-.202.177-.283.35-.283.56 0 .21.081.383.283.56.224.195.569.363.98.475a1 1 0 11-.526 1.93c-.589-.16-1.244-.44-1.77-.9C38.419 37.588 38 36.896 38 36s.42-1.586.967-2.065c.526-.46 1.181-.74 1.77-.9a1 1 0 011.228.703zM19 9c-.548 0-1 .452-1 1v1c0 .548.452 1 1 1h34c.548 0 1-.452 1-1v-1c0-.548-.452-1-1-1H19zm-3 1c0-1.652 1.348-3 3-3h34c1.652 0 3 1.348 3 3v1c0 1.652-1.348 3-3 3H19c-1.652 0-3-1.348-3-3v-1zM19 60c-.548 0-1 .452-1 1v1c0 .548.452 1 1 1h34c.548 0 1-.452 1-1v-1c0-.548-.452-1-1-1H19zm-3 1c0-1.652 1.348-3 3-3h34c1.652 0 3 1.348 3 3v1c0 1.652-1.348 3-3 3H19c-1.652 0-3-1.348-3-3v-1z" clip-rule="evenodd" />
  </g>
  <path fill="#000" fill-rule="evenodd" d="M36 38a1 1 0 011 1v5a1 1 0 11-2 0v-5a1 1 0 011-1z" clip-rule="evenodd" />
</svg>